<svg width="129" height="34" viewBox="0 0 129 34" fill="none" xmlns="http://www.w3.org/2000/svg">
<path d="M0 30.5993C5.63333 30.5993 10.2 26.0325 10.2 20.3993C10.2 14.7659 5.63333 10.1992 0 10.1992V17.3392C1.68998 17.3392 3.05999 18.7092 3.05999 20.3993C3.05999 22.0892 1.68998 23.4592 0 23.4592V30.5993Z" fill="white"/>
<path d="M34.0002 13.6001C32.2572 13.0479 30.401 12.75 28.4752 12.75C18.3821 12.75 10.2002 20.9321 10.2002 31.025C10.2002 32.0381 10.2826 33.0319 10.4411 34H21.796C21.3906 33.0913 21.1653 32.0845 21.1653 31.025C21.1653 26.9878 24.438 23.715 28.4752 23.715C30.6818 23.715 32.6599 24.6927 34.0002 26.2384V13.6001Z" fill="white"/>
<path d="M1.79297 0C2.63862 7.64992 9.12429 13.6001 16.9996 13.6001C24.8749 13.6001 31.3606 7.64992 32.2062 0H21.2645C20.589 1.69339 18.934 2.88999 16.9996 2.88999C15.0652 2.88999 13.4103 1.69339 12.7347 0H1.79297Z" fill="white"/>
<path d="M50.8736 21.3359H60.3199V24.9389H46V21.6412L55.3861 7.22901H46V3.62595H60.3199V6.92366L50.8736 21.3359Z" fill="white"/>
<path d="M66.041 6.00763C65.2989 6.00763 64.6772 5.77354 64.1758 5.30534C63.6944 4.81679 63.4538 4.21628 63.4538 3.50382C63.4538 2.79135 63.6944 2.20102 64.1758 1.73282C64.6772 1.24427 65.2989 1 66.041 1C66.783 1 67.3947 1.24427 67.8761 1.73282C68.3775 2.20102 68.6282 2.79135 68.6282 3.50382C68.6282 4.21628 68.3775 4.81679 67.8761 5.30534C67.3947 5.77354 66.783 6.00763 66.041 6.00763ZM68.1168 8.0229V24.9389H63.905V8.0229H68.1168Z" fill="white"/>
<path d="M76.4897 10.4656C77.0312 9.69211 77.7733 9.05089 78.7159 8.54199C79.6786 8.01272 80.7716 7.74809 81.995 7.74809C83.419 7.74809 84.7026 8.10433 85.8457 8.81679C87.009 9.52926 87.9215 10.5471 88.5834 11.8702C89.2653 13.173 89.6062 14.6896 89.6062 16.4198C89.6062 18.1501 89.2653 19.687 88.5834 21.0305C87.9215 22.3537 87.009 23.3817 85.8457 24.1145C84.7026 24.8473 83.419 25.2137 81.995 25.2137C80.7716 25.2137 79.6886 24.9593 78.746 24.4504C77.8234 23.9415 77.0713 23.3003 76.4897 22.5267V33H72.278V8.0229H76.4897V10.4656ZM85.3042 16.4198C85.3042 15.402 85.0936 14.5267 84.6725 13.7939C84.2714 13.0407 83.7298 12.4707 83.048 12.084C82.3861 11.6972 81.6641 11.5038 80.8819 11.5038C80.1198 11.5038 79.3978 11.7074 78.7159 12.1145C78.054 12.5013 77.5125 13.0712 77.0914 13.8244C76.6902 14.5776 76.4897 15.4631 76.4897 16.4809C76.4897 17.4987 76.6902 18.3842 77.0914 19.1374C77.5125 19.8906 78.054 20.4707 78.7159 20.8779C79.3978 21.2646 80.1198 21.458 80.8819 21.458C81.6641 21.458 82.3861 21.2545 83.048 20.8473C83.7298 20.4402 84.2714 19.8601 84.6725 19.1069C85.0936 18.3537 85.3042 17.458 85.3042 16.4198Z" fill="white"/>
<path d="M96.8785 10.4656C97.42 9.69211 98.1621 9.05089 99.1047 8.54199C100.067 8.01272 101.16 7.74809 102.384 7.74809C103.808 7.74809 105.091 8.10433 106.235 8.81679C107.398 9.52926 108.31 10.5471 108.972 11.8702C109.654 13.173 109.995 14.6896 109.995 16.4198C109.995 18.1501 109.654 19.687 108.972 21.0305C108.31 22.3537 107.398 23.3817 106.235 24.1145C105.091 24.8473 103.808 25.2137 102.384 25.2137C101.16 25.2137 100.077 24.9593 99.1348 24.4504C98.2122 23.9415 97.4601 23.3003 96.8785 22.5267V33H92.6668V8.0229H96.8785V10.4656ZM105.693 16.4198C105.693 15.402 105.482 14.5267 105.061 13.7939C104.66 13.0407 104.119 12.4707 103.437 12.084C102.775 11.6972 102.053 11.5038 101.271 11.5038C100.509 11.5038 99.7866 11.7074 99.1047 12.1145C98.4429 12.5013 97.9014 13.0712 97.4802 13.8244C97.0791 14.5776 96.8785 15.4631 96.8785 16.4809C96.8785 17.4987 97.0791 18.3842 97.4802 19.1374C97.9014 19.8906 98.4429 20.4707 99.1047 20.8779C99.7866 21.2646 100.509 21.458 101.271 21.458C102.053 21.458 102.775 21.2545 103.437 20.8473C104.119 20.4402 104.66 19.8601 105.061 19.1069C105.482 18.3537 105.693 17.458 105.693 16.4198Z" fill="white"/>
<path d="M129 8.0229L118.681 32.9389H114.199L117.809 24.5115L111.13 8.0229H115.853L120.155 19.8397L124.518 8.0229H129Z" fill="white"/>
</svg>
