<svg width="2560" height="1585" viewBox="0 0 2560 1585" fill="none" xmlns="http://www.w3.org/2000/svg">
<path d="M1854.67 937.827C1845.98 972.129 1821.67 1000.79 1785.07 1023.23C1748.46 1045.68 1699.59 1061.89 1641.85 1071.28C1526.37 1090.07 1375.52 1081.6 1216.68 1041.37C1057.85 1001.15 921.145 936.811 828.527 865.323C782.217 829.579 746.949 792.063 725.438 754.9C703.929 717.74 696.192 680.965 704.879 646.662C713.565 612.36 737.873 583.699 774.476 561.255C811.081 538.809 859.955 522.601 917.695 513.205C1033.17 494.415 1184.02 502.893 1342.86 543.115C1501.7 583.338 1638.4 647.678 1731.02 719.166C1777.33 754.91 1812.59 792.426 1834.11 829.589C1855.61 866.749 1863.35 903.524 1854.67 937.827Z" stroke="url(#paint0_linear_42_497)"/>
<path d="M2115.27 1003.82C2102.63 1053.73 2067.27 1095.42 2014.05 1128.05C1960.83 1160.68 1889.79 1184.24 1805.88 1197.89C1638.06 1225.2 1418.85 1212.88 1188.05 1154.43C957.254 1095.98 758.604 1002.49 624.006 898.6C556.706 846.654 505.44 792.125 474.167 738.097C442.896 684.071 431.632 630.578 444.272 580.665C456.912 530.753 492.278 489.068 545.493 456.437C598.711 423.805 669.752 400.248 753.663 386.594C921.484 359.287 1140.69 371.609 1371.49 430.055C1602.29 488.502 1800.94 581.995 1935.54 685.884C2002.84 737.83 2054.1 792.359 2085.38 846.387C2116.65 900.413 2127.91 953.906 2115.27 1003.82Z" stroke="url(#paint1_linear_42_497)"/>
<path d="M2432.38 1084.12C2414.93 1153.03 2366.11 1210.56 2292.68 1255.59C2219.25 1300.62 2121.23 1333.12 2005.48 1351.95C1773.97 1389.62 1471.59 1372.62 1153.22 1292C834.849 1211.38 560.821 1082.41 375.143 939.096C282.302 867.437 211.57 792.205 168.418 717.655C125.268 643.107 109.714 569.272 127.163 500.365C144.613 431.457 193.435 373.924 266.864 328.898C340.297 283.871 438.311 251.372 554.067 232.536C785.578 194.866 1087.96 211.865 1406.33 292.487C1724.7 373.108 1998.72 502.075 2184.4 645.392C2277.24 717.051 2347.98 792.283 2391.13 866.833C2434.28 941.38 2449.83 1015.22 2432.38 1084.12Z" stroke="url(#paint2_linear_42_497)"/>
<defs>
<linearGradient id="paint0_linear_42_497" x1="744.696" y1="626.796" x2="1740.75" y2="1040.03" gradientUnits="userSpaceOnUse">
<stop stop-color="#484848"/>
<stop offset="0.491388" stop-color="#484848" stop-opacity="0.36"/>
<stop offset="1" stop-color="#484848"/>
</linearGradient>
<linearGradient id="paint1_linear_42_497" x1="502.343" y1="551.857" x2="1949.55" y2="1152.25" gradientUnits="userSpaceOnUse">
<stop stop-color="#484848"/>
<stop offset="0.491388" stop-color="#484848" stop-opacity="0.36"/>
<stop offset="1" stop-color="#484848"/>
</linearGradient>
<linearGradient id="paint2_linear_42_497" x1="207.446" y1="460.676" x2="2203.61" y2="1288.81" gradientUnits="userSpaceOnUse">
<stop stop-color="#484848"/>
<stop offset="0.491388" stop-color="#484848" stop-opacity="0.36"/>
<stop offset="1" stop-color="#484848"/>
</linearGradient>
</defs>
</svg>
